<?xml version="1.0" standalone="no"?>
<!DOCTYPE svg PUBLIC "-//W3C//DTD SVG 20010904//EN"
 "http://www.w3.org/TR/2001/REC-SVG-20010904/DTD/svg10.dtd">
<svg version="1.0" xmlns="http://www.w3.org/2000/svg"
 width="180.000000pt" height="180.000000pt" viewBox="0 0 180.000000 180.000000"
 preserveAspectRatio="xMidYMid meet">
<metadata>
Created by potrace 1.14, written by Peter Selinger 2001-2017
</metadata>
<g transform="translate(0.000000,180.000000) scale(0.100000,-0.100000)"
fill="#000000" stroke="none">
<path d="M1103 1283 c-19 -7 -16 -22 10 -49 27 -29 43 -30 57 -5 13 25 13 27
-6 45 -15 16 -37 19 -61 9z"/>
<path d="M0 900 l0 -381 78 3 77 3 0 375 0 375 -77 3 -78 3 0 -381z"/>
<path d="M452 1268 c-6 -6 -12 -18 -12 -26 0 -7 -10 -32 -22 -55 -32 -63 -38
-76 -38 -87 0 -11 67 26 78 44 4 7 34 34 67 60 33 27 60 54 60 60 0 16 -117
20 -133 4z"/>
<path d="M813 1250 c-77 -56 -106 -163 -68 -243 21 -46 96 -113 161 -147 142
-73 204 -134 204 -199 0 -32 -24 -96 -40 -106 -6 -4 -8 -11 -4 -16 7 -12 43
-2 62 17 7 8 16 14 20 14 4 0 17 15 29 33 27 40 38 109 28 182 -6 48 -13 61
-54 104 -27 28 -69 60 -95 72 -25 12 -49 25 -52 30 -3 5 -12 9 -20 9 -22 0
-95 57 -116 90 -24 40 -23 95 3 136 36 59 6 71 -58 24z"/>
<path d="M1358 1268 c-8 -29 0 -730 9 -739 6 -6 39 -9 74 -7 l64 3 0 375 0
375 -71 3 c-52 2 -73 -1 -76 -10z"/>
<path d="M1635 1270 c-7 -12 2 -30 16 -30 6 0 26 -12 44 -26 40 -30 67 -28 75
6 12 46 -4 60 -70 60 -32 0 -62 -4 -65 -10z"/>
<path d="M241 942 c-49 -42 -50 -58 -5 -108 14 -16 57 -72 96 -124 148 -196
140 -190 237 -190 98 0 103 11 37 82 -48 53 -136 161 -236 293 -35 47 -69 85
-75 85 -5 0 -30 -17 -54 -38z"/>
<path d="M1650 947 c-14 -7 -26 -20 -28 -28 -4 -20 45 -42 84 -37 26 3 29 7
29 38 0 32 -3 35 -30 38 -16 1 -41 -4 -55 -11z"/>
<path d="M1740 609 c-19 -17 -50 -38 -68 -45 -53 -23 -34 -39 51 -42 l77 -3 0
61 c0 70 -8 74 -60 29z"/>
<path d="M751 589 c-16 -48 -14 -56 20 -68 33 -11 79 -5 79 11 0 15 -64 88
-77 88 -6 0 -16 -14 -22 -31z"/>
</g>
</svg>
